<svg width="14" height="8" viewBox="0 0 14 8" fill="none" xmlns="http://www.w3.org/2000/svg">
<path d="M14.0013 2.15342C14.0018 2.30281 13.9688 2.45042 13.9048 2.5854C13.8407 2.72038 13.7473 2.8393 13.6313 2.93342L7.63125 7.76342C7.45232 7.9105 7.22788 7.99091 6.99625 7.99091C6.76463 7.99091 6.54018 7.9105 6.36125 7.76342L0.361253 2.76342C0.157036 2.59368 0.028612 2.34977 0.00423227 2.08534C-0.0201474 1.82092 0.0615145 1.55763 0.231253 1.35342C0.400992 1.1492 0.644903 1.02078 0.909329 0.996398C1.17376 0.972018 1.43704 1.05368 1.64125 1.22342L7.00125 5.69342L12.3613 1.37342C12.508 1.25114 12.6868 1.17346 12.8763 1.14958C13.0659 1.1257 13.2583 1.15662 13.4308 1.23867C13.6034 1.32073 13.7488 1.45049 13.8499 1.6126C13.9509 1.77471 14.0035 1.96239 14.0013 2.15342Z" fill="#B75038"/>
</svg>
