<svg width="123" height="107" viewBox="0 0 123 107" fill="none" xmlns="http://www.w3.org/2000/svg">
<g clip-path="url(#clip0_2023_362)">
<path fill-rule="evenodd" clip-rule="evenodd" d="M11.1 0H46.73C49.78 0 52.58 1.25 54.58 3.25C56.61 5.28 57.83 8.05 57.83 11.1V42.56H54.64V12.18H3.15V87.44H10.76V99.05C10.76 100.63 11.03 102.15 11.53 103.56H11.1C8.05 103.56 5.25 102.31 3.25 100.31C1.22 98.27 0 95.51 0 92.45V11.1C0 8.05 1.25 5.25 3.25 3.25C5.28 1.22 8.04 0 11.1 0ZM94.95 33.45C94.58 27.65 92.31 22.89 88.89 19.48C85.25 15.85 80.3 13.74 74.95 13.55L77.41 16.5C78.14 17.38 78.03 18.68 77.15 19.41C76.27 20.14 74.97 20.03 74.24 19.15L68.52 12.3C67.8 11.44 67.9 10.16 68.74 9.42L75.45 3.53C76.31 2.78 77.61 2.87 78.36 3.72C79.11 4.58 79.02 5.88 78.17 6.63L75.01 9.41C81.44 9.62 87.41 12.16 91.81 16.54C95.88 20.6 98.6 26.23 99.06 33.03L101.64 29.95C102.37 29.07 103.68 28.96 104.55 29.69C105.43 30.42 105.54 31.73 104.81 32.6L99.08 39.44C98.36 40.3 97.09 40.43 96.21 39.73L89.23 34.17C88.34 33.46 88.19 32.16 88.9 31.26C89.61 30.37 90.91 30.22 91.81 30.93L94.95 33.45ZM122.88 59.7V95.33C122.88 98.38 121.63 101.18 119.63 103.18C117.6 105.21 114.83 106.43 111.78 106.43H32.88C29.83 106.43 27.03 105.18 25.03 103.18C23 101.15 21.78 98.38 21.78 95.33V59.7C21.78 56.65 23.03 53.85 25.03 51.85C27.06 49.82 29.82 48.6 32.88 48.6H111.78C114.83 48.6 117.63 49.85 119.63 51.85C121.66 53.88 122.88 56.64 122.88 59.7ZM35.41 77.49C35.41 80 33.38 82.06 30.84 82.06C28.33 82.06 26.27 80.03 26.27 77.49C26.27 74.98 28.3 72.92 30.84 72.92C33.36 72.92 35.41 74.95 35.41 77.49ZM37.88 51.75V103.24H110.7V51.75H37.88Z" fill="white"/>
</g>
<defs>
<clipPath id="clip0_2023_362">
<rect width="122.88" height="106.43" fill="white"/>
</clipPath>
</defs>
</svg>
